<svg width="48" height="48" viewBox="0 0 48 48" fill="none" xmlns="http://www.w3.org/2000/svg">
<path d="M45.4395 31.1426L47.1973 29.3848C48.252 28.3301 48.252 26.8066 47.1973 25.8691V25.752C46.1426 24.8145 44.6191 24.8145 43.6816 25.752L36.5332 32.9004L15.0879 11.4551L22.2363 4.30664C23.1738 3.36914 23.1738 1.8457 22.2363 0.791016H22.1191C21.1816 -0.263672 19.6582 -0.263672 18.6035 0.791016L16.8457 2.54883L15.0879 0.791016C14.0332 -0.263672 12.5098 -0.263672 11.4551 0.791016L7.93945 4.30664L6.06445 2.54883C5.12695 1.61133 3.48633 1.61133 2.54883 2.54883C1.61133 3.48633 1.61133 5.12695 2.54883 6.06445L4.30664 7.93945L0.791016 11.4551C-0.263672 12.5098 -0.263672 14.0332 0.791016 14.9707L2.54883 16.8457L0.791016 18.6035C-0.263672 19.6582 -0.263672 21.1816 0.791016 22.1191V22.2363C1.8457 23.1738 3.36914 23.1738 4.30664 22.2363L11.4551 15.0879L32.9004 36.5332L25.752 43.6816C24.8145 44.6191 24.8145 46.1426 25.752 47.1973H25.8691C26.8066 48.252 28.3301 48.252 29.3848 47.1973L31.1426 45.4395L32.9004 47.1973C33.9551 48.252 35.4785 48.252 36.416 47.1973L40.0488 43.6816L41.8066 45.4395C42.8613 46.377 44.502 46.377 45.4395 45.4395C46.377 44.502 46.377 42.8613 45.4395 41.9238L43.5645 40.0488L47.1973 36.5332C48.252 35.4785 48.252 33.9551 47.1973 33.0176L45.4395 31.1426Z" fill="#0a1210"/>
</svg>
