<svg width="80" height="80" viewBox="0 0 80 80" fill="none" xmlns="http://www.w3.org/2000/svg">
<rect width="80" height="80" rx="16" fill="#21C45D" fill-opacity="0.1"/>
<rect x="0.5" y="0.5" width="79" height="79" rx="15.5" stroke="#21C45D" stroke-opacity="0.2"/>
<path d="M44.125 37.375L40 35.5L44.125 33.625L46 29.5L47.875 33.625L52 35.5L47.875 37.375L46 41.5L44.125 37.375ZM23.9688 45.5312L25.8438 41.4062L29.9688 39.5312L25.8438 37.6562L23.9688 33.5312L22.0938 37.6562L17.9688 39.5312L22.0938 41.4062L23.9688 45.5312ZM32.9688 35.5L35.2188 30.7188L40 28.4688L35.2188 26.3125L32.9688 21.5312L30.8125 26.3125L26.0312 28.4688L30.8125 30.7188L32.9688 35.5ZM25 58.4688L37 46.4688L44.9688 54.4375L62.0312 35.4062L59.2188 32.5L44.9688 48.4375L37 40.4688L22 55.4688L25 58.4688Z" fill="#21C45D"/>
<rect x="54.9688" y="18.5312" width="10" height="10" rx="5" fill="#21C45D" stroke="#122017" stroke-width="2"/>
</svg>
